# xmcd
#
# Track frame offsets: 
#        150
#        13485
#        25501
#        38233
#        50165
#        60454
#        69817
#        79699
#        92698
#        105581
#        117819
#        130062
#        140448
#        151290
#        165201
#        176871
#        189999
#        203705
#        217384
#        230548
#        244463
#        257477
#        270173
#        282210
#        295726
#
# Disc length: 4110 seconds
#
# Revision: 3
# Processed by: cddbd v1.5.2PL0 Copyright (c) Steve Scherf et al.
# Submitted via: ExactAudioCopy v1.0b3
#
DISCID=5c100c19
DTITLE=Various Artist - Definitive Blues Anthology
DYEAR=2008
DGENRE=Blues
TTITLE0=Muddy Waters - Mannish Boy (1955)
TTITLE1=Sonny Boy Williamson - From the Bottom (1954)
TTITLE2=Howlin' Wolf - Forty Four (1955)
TTITLE3=Little Walter - My Babe (1954)
TTITLE4=Little Willie John - Need Your Love So Bad (1954)
TTITLE5=Percy Mayfiels - Louisiana (1952)
TTITLE6=Champion Jack Dupree - Me and My Mule (1953)
TTITLE7=Willie Mabon - Seventh Son (1955)
TTITLE8=Bo Diddley - Pretty Thing (1955)
TTITLE9=Billy Boy Arnold - I Wish You Would (1954)
TTITLE10=Pee Wee Crayton - Daybreak (1951)
TTITLE11=Smiley Lewis - One Night (1956)
TTITLE12=Billy Gayles - I'm Tore Up (1956)
TTITLE13=Jimmy Reed - You Don't Have to Go (1954)
TTITLE14=John Lee Hooker - Pouring Down Rain (1954)
TTITLE15=Guitar Slim and his Band - Story Of My Life (1954)
TTITLE16=Screamin' Jay Hawkins - (She Put the) Whamee On Me (1955)
TTITLE17=James Cotton - Cotton Crop Blues (1953)
TTITLE18=B.B. King - When My Heart Beats Like A Hammer (1954)
TTITLE19=Little Walter - You're So Fine (1954)
TTITLE20=Muddy Waters - Forty Days and Forty Nights (1956)
TTITLE21=Howlin' Wolg - I Asked For Water (1956)
TTITLE22=JImmy Reed - Honest I Do (1957)
TTITLE23=Bobby Bland - No Blow, No Show (1953)
TTITLE24=Willie Mabon - Poison Ivy (1954)
EXTD=YEAR: 2008
EXTT0=
EXTT1=
EXTT2=
EXTT3=
EXTT4=
EXTT5=
EXTT6=
EXTT7=
EXTT8=
EXTT9=
EXTT10=
EXTT11=
EXTT12=
EXTT13=
EXTT14=
EXTT15=
EXTT16=
EXTT17=
EXTT18=
EXTT19=
EXTT20=
EXTT21=
EXTT22=
EXTT23=
EXTT24=
PLAYORDER=
